<svg xmlns="http://www.w3.org/2000/svg" width="610" height="218" style="background:#121212">
  <rect x="10" y="10" width="20" height="22" fill="#3d6b5e"/><rect x="30" y="10" width="20" height="22" fill="#3d6b5e"/><rect x="50" y="10" width="20" height="22" fill="#3d6b5e"/><rect x="70" y="10" width="20" height="22" fill="#3d6b5e"/><rect x="90" y="10" width="20" height="22" fill="#3d6b5e"/><rect x="110" y="10" width="20" height="22" fill="#3d6b5e"/><rect x="130" y="10" width="20" height="22" fill="#3d6b5e"/><rect x="150" y="10" width="20" height="22" fill="#3d6b5e"/><rect x="170" y="10" width="20" height="22" fill="#3d6b5e"/><rect x="190" y="10" width="20" height="22" fill="#3d6b5e"/><rect x="210" y="10" width="20" height="22" fill="#3d6b5e"/><rect x="230" y="10" width="20" height="22" fill="#3d6b5e"/><rect x="250" y="10" width="20" height="22" fill="#3d6b5e"/><rect x="270" y="10" width="20" height="22" fill="#3d6b5e"/><rect x="290" y="10" width="20" height="22" fill="#3d6b5e"/><rect x="310" y="10" width="20" height="22" fill="#3d6b5e"/><rect x="330" y="10" width="20" height="22" fill="#3d6b5e"/><rect x="350" y="10" width="20" height="22" fill="#3d6b5e"/><rect x="370" y="10" width="20" height="22" fill="#3d6b5e"/><rect x="10" y="32" width="20" height="22" fill="#3d6b5e"/><rect x="30" y="32" width="20" height="22" fill="#6b9e6e"/><rect x="50" y="32" width="20" height="22" fill="#6b9e6e"/><rect x="70" y="32" width="20" height="22" fill="#6b9e6e"/><rect x="90" y="32" width="20" height="22" fill="#6b9e6e"/><rect x="110" y="32" width="20" height="22" fill="#6b9e6e"/><rect x="130" y="32" width="20" height="22" fill="#6b9e6e"/><rect x="150" y="32" width="20" height="22" fill="#6b9e6e"/><rect x="170" y="32" width="20" height="22" fill="#6b9e6e"/><rect x="190" y="32" width="20" height="22" fill="#6b9e6e"/><rect x="210" y="32" width="20" height="22" fill="#6b9e6e"/><rect x="230" y="32" width="20" height="22" fill="#6b9e6e"/><rect x="250" y="32" width="20" height="22" fill="#6b9e6e"/><rect x="270" y="32" width="20" height="22" fill="#6b9e6e"/><rect x="290" y="32" width="20" height="22" fill="#6b9e6e"/><rect x="310" y="32" width="20" height="22" fill="#6b9e6e"/><rect x="330" y="32" width="20" height="22" fill="#6b9e6e"/><rect x="350" y="32" width="20" height="22" fill="#6b9e6e"/><rect x="370" y="32" width="20" height="22" fill="#3d6b5e"/><rect x="10" y="54" width="20" height="22" fill="#3d6b5e"/><rect x="30" y="54" width="20" height="22" fill="#6b9e6e"/><rect x="50" y="54" width="20" height="22" fill="#c4935a"/><rect x="70" y="54" width="20" height="22" fill="#c4935a"/><rect x="90" y="54" width="20" height="22" fill="#c4935a"/><rect x="110" y="54" width="20" height="22" fill="#c4935a"/><rect x="130" y="54" width="20" height="22" fill="#c4935a"/><rect x="150" y="54" width="20" height="22" fill="#c4935a"/><rect x="170" y="54" width="20" height="22" fill="#c4935a"/><rect x="190" y="54" width="20" height="22" fill="#c4935a"/><rect x="210" y="54" width="20" height="22" fill="#c4935a"/><rect x="230" y="54" width="20" height="22" fill="#c4935a"/><rect x="250" y="54" width="20" height="22" fill="#c4935a"/><rect x="270" y="54" width="20" height="22" fill="#c4935a"/><rect x="290" y="54" width="20" height="22" fill="#c4935a"/><rect x="310" y="54" width="20" height="22" fill="#c4935a"/><rect x="330" y="54" width="20" height="22" fill="#c4935a"/><rect x="350" y="54" width="20" height="22" fill="#6b9e6e"/><rect x="370" y="54" width="20" height="22" fill="#3d6b5e"/><rect x="10" y="76" width="20" height="22" fill="#3d6b5e"/><rect x="30" y="76" width="20" height="22" fill="#6b9e6e"/><rect x="50" y="76" width="20" height="22" fill="#c4935a"/><rect x="70" y="76" width="20" height="22" fill="#e8c98a"/><rect x="90" y="76" width="20" height="22" fill="#e8c98a"/><rect x="110" y="76" width="20" height="22" fill="#e8c98a"/><rect x="130" y="76" width="20" height="22" fill="#e8c98a"/><rect x="150" y="76" width="20" height="22" fill="#e8c98a"/><rect x="170" y="76" width="20" height="22" fill="#e8c98a"/><rect x="190" y="76" width="20" height="22" fill="#e8c98a"/><rect x="210" y="76" width="20" height="22" fill="#e8c98a"/><rect x="230" y="76" width="20" height="22" fill="#e8c98a"/><rect x="250" y="76" width="20" height="22" fill="#e8c98a"/><rect x="270" y="76" width="20" height="22" fill="#e8c98a"/><rect x="290" y="76" width="20" height="22" fill="#e8c98a"/><rect x="310" y="76" width="20" height="22" fill="#e8c98a"/><rect x="330" y="76" width="20" height="22" fill="#c4935a"/><rect x="350" y="76" width="20" height="22" fill="#6b9e6e"/><rect x="370" y="76" width="20" height="22" fill="#3d6b5e"/><rect x="10" y="98" width="20" height="22" fill="#3d6b5e"/><rect x="30" y="98" width="20" height="22" fill="#6b9e6e"/><rect x="50" y="98" width="20" height="22" fill="#c4935a"/><rect x="70" y="98" width="20" height="22" fill="#e8c98a"/><rect x="90" y="98" width="20" height="22" fill="#e8c98a"/><rect x="110" y="98" width="20" height="22" fill="#e8c98a"/><rect x="130" y="98" width="20" height="22" fill="#e8c98a"/><rect x="150" y="98" width="20" height="22" fill="#e8c98a"/><rect x="170" y="98" width="20" height="22" fill="#e8c98a"/><rect x="190" y="98" width="20" height="22" fill="#e8c98a"/><rect x="210" y="98" width="20" height="22" fill="#e8c98a"/><rect x="230" y="98" width="20" height="22" fill="#e8c98a"/><rect x="250" y="98" width="20" height="22" fill="#e8c98a"/><rect x="270" y="98" width="20" height="22" fill="#e8c98a"/><rect x="290" y="98" width="20" height="22" fill="#e8c98a"/><rect x="310" y="98" width="20" height="22" fill="#e8c98a"/><rect x="330" y="98" width="20" height="22" fill="#c4935a"/><rect x="350" y="98" width="20" height="22" fill="#6b9e6e"/><rect x="370" y="98" width="20" height="22" fill="#3d6b5e"/><rect x="10" y="120" width="20" height="22" fill="#3d6b5e"/><rect x="30" y="120" width="20" height="22" fill="#6b9e6e"/><rect x="50" y="120" width="20" height="22" fill="#c4935a"/><rect x="70" y="120" width="20" height="22" fill="#e8c98a"/><rect x="90" y="120" width="20" height="22" fill="#e8c98a"/><rect x="110" y="120" width="20" height="22" fill="#e8c98a"/><rect x="130" y="120" width="20" height="22" fill="#e8c98a"/><rect x="150" y="120" width="20" height="22" fill="#e8c98a"/><rect x="170" y="120" width="20" height="22" fill="#e8c98a"/><rect x="190" y="120" width="20" height="22" fill="#e8c98a"/><rect x="210" y="120" width="20" height="22" fill="#e8c98a"/><rect x="230" y="120" width="20" height="22" fill="#e8c98a"/><rect x="250" y="120" width="20" height="22" fill="#e8c98a"/><rect x="270" y="120" width="20" height="22" fill="#e8c98a"/><rect x="290" y="120" width="20" height="22" fill="#e8c98a"/><rect x="310" y="120" width="20" height="22" fill="#e8c98a"/><rect x="330" y="120" width="20" height="22" fill="#c4935a"/><rect x="350" y="120" width="20" height="22" fill="#6b9e6e"/><rect x="370" y="120" width="20" height="22" fill="#3d6b5e"/><rect x="10" y="142" width="20" height="22" fill="#3d6b5e"/><rect x="30" y="142" width="20" height="22" fill="#6b9e6e"/><rect x="50" y="142" width="20" height="22" fill="#c4935a"/><rect x="70" y="142" width="20" height="22" fill="#c4935a"/><rect x="90" y="142" width="20" height="22" fill="#c4935a"/><rect x="110" y="142" width="20" height="22" fill="#c4935a"/><rect x="130" y="142" width="20" height="22" fill="#c4935a"/><rect x="150" y="142" width="20" height="22" fill="#c4935a"/><rect x="170" y="142" width="20" height="22" fill="#c4935a"/><rect x="190" y="142" width="20" height="22" fill="#c4935a"/><rect x="210" y="142" width="20" height="22" fill="#c4935a"/><rect x="230" y="142" width="20" height="22" fill="#c4935a"/><rect x="250" y="142" width="20" height="22" fill="#c4935a"/><rect x="270" y="142" width="20" height="22" fill="#c4935a"/><rect x="290" y="142" width="20" height="22" fill="#c4935a"/><rect x="310" y="142" width="20" height="22" fill="#c4935a"/><rect x="330" y="142" width="20" height="22" fill="#c4935a"/><rect x="350" y="142" width="20" height="22" fill="#6b9e6e"/><rect x="370" y="142" width="20" height="22" fill="#3d6b5e"/><rect x="10" y="164" width="20" height="22" fill="#3d6b5e"/><rect x="30" y="164" width="20" height="22" fill="#6b9e6e"/><rect x="50" y="164" width="20" height="22" fill="#6b9e6e"/><rect x="70" y="164" width="20" height="22" fill="#6b9e6e"/><rect x="90" y="164" width="20" height="22" fill="#6b9e6e"/><rect x="110" y="164" width="20" height="22" fill="#6b9e6e"/><rect x="130" y="164" width="20" height="22" fill="#6b9e6e"/><rect x="150" y="164" width="20" height="22" fill="#6b9e6e"/><rect x="170" y="164" width="20" height="22" fill="#6b9e6e"/><rect x="190" y="164" width="20" height="22" fill="#6b9e6e"/><rect x="210" y="164" width="20" height="22" fill="#6b9e6e"/><rect x="230" y="164" width="20" height="22" fill="#6b9e6e"/><rect x="250" y="164" width="20" height="22" fill="#6b9e6e"/><rect x="270" y="164" width="20" height="22" fill="#6b9e6e"/><rect x="290" y="164" width="20" height="22" fill="#6b9e6e"/><rect x="310" y="164" width="20" height="22" fill="#6b9e6e"/><rect x="330" y="164" width="20" height="22" fill="#6b9e6e"/><rect x="350" y="164" width="20" height="22" fill="#6b9e6e"/><rect x="370" y="164" width="20" height="22" fill="#3d6b5e"/><rect x="10" y="186" width="20" height="22" fill="#3d6b5e"/><rect x="30" y="186" width="20" height="22" fill="#3d6b5e"/><rect x="50" y="186" width="20" height="22" fill="#3d6b5e"/><rect x="70" y="186" width="20" height="22" fill="#3d6b5e"/><rect x="90" y="186" width="20" height="22" fill="#3d6b5e"/><rect x="110" y="186" width="20" height="22" fill="#3d6b5e"/><rect x="130" y="186" width="20" height="22" fill="#3d6b5e"/><rect x="150" y="186" width="20" height="22" fill="#3d6b5e"/><rect x="170" y="186" width="20" height="22" fill="#3d6b5e"/><rect x="190" y="186" width="20" height="22" fill="#3d6b5e"/><rect x="210" y="186" width="20" height="22" fill="#3d6b5e"/><rect x="230" y="186" width="20" height="22" fill="#3d6b5e"/><rect x="250" y="186" width="20" height="22" fill="#3d6b5e"/><rect x="270" y="186" width="20" height="22" fill="#3d6b5e"/><rect x="290" y="186" width="20" height="22" fill="#3d6b5e"/><rect x="310" y="186" width="20" height="22" fill="#3d6b5e"/><rect x="330" y="186" width="20" height="22" fill="#3d6b5e"/><rect x="350" y="186" width="20" height="22" fill="#3d6b5e"/><rect x="370" y="186" width="20" height="22" fill="#3d6b5e"/>
  <text x="406" y="71" font-family="monospace" font-size="14" font-weight="bold" fill="#e8e8e8">albers</text><text x="406" y="93" font-family="monospace" font-size="14" fill="#888888">a color analysis tool</text><text x="406" y="137" font-family="monospace" font-size="14" font-style="italic" fill="#c0c0c0">after Josef Albers</text><text x="406" y="159" font-family="monospace" font-size="14" fill="#888888">Interaction of Color, 1963</text>
</svg>